<svg id="Layer_1" data-name="Layer 1" xmlns="http://www.w3.org/2000/svg" viewBox="0 0 30 30">
  <g>
    <path d="M27.854,13.76l-5.114-.731L18.313,8.466A2.486,2.486,0,0,0,16.859,8h-.79a.5.5,0,0,0,0,1h.79a1.534,1.534,0,0,1,.8.22L21.32,13H13.809l-.862-1.724a.5.5,0,1,0-.894.448L12.691,13H7.25L6.112,11.483l.359-.538a.5.5,0,0,0-.832-.554L5.232,11H1.5a.5.5,0,0,0,0,1H5.25L6,13H2.5A2.5,2.5,0,0,0,0,15.5v1.955a2.5,2.5,0,0,0,2.488,2.5l1.694.038A2.982,2.982,0,0,0,9.816,20H20.184a2.982,2.982,0,0,0,5.646-.045H28.5a1.5,1.5,0,0,0,1.5-1.5V16.234A2.513,2.513,0,0,0,27.854,13.76ZM7,21a2,2,0,1,1,2-2A2,2,0,0,1,7,21Zm16,0a2,2,0,1,1,2-2A2,2,0,0,1,23,21Zm6-2.545a.5.5,0,0,1-.5.5H26A3,3,0,0,0,20,19H10a3,3,0,0,0-6-.012l-1.5-.033a1.5,1.5,0,0,1-1.5-1.5V15.5A1.5,1.5,0,0,1,2.5,14H22.465l5.248.75A1.507,1.507,0,0,1,29,16.234Z"/>
    <path d="M16.5,15h-1a.5.5,0,0,0,0,1h1a.5.5,0,0,0,0-1Z"/>
    <path d="M10.069,9h1a.5.5,0,1,0,0-1h-1a.5.5,0,0,0,0,1Z"/>
    <path d="M13.069,9h1a.5.5,0,1,0,0-1h-1a.5.5,0,0,0,0,1Z"/>
    <path d="M7.206,9.537A.5.5,0,0,0,7.547,9.4,1.5,1.5,0,0,1,8.2,9.047a.5.5,0,1,0-.248-.969,2.519,2.519,0,0,0-1.085.593.5.5,0,0,0,.341.866Z"/>
  </g>
</svg>
