<svg width="15" height="17" viewBox="0 0 15 17" fill="none" xmlns="http://www.w3.org/2000/svg">
<path d="M10.0076 7.00534C10.0076 7.80155 9.69128 8.56516 9.12827 9.12817C8.56526 9.69118 7.80165 10.0075 7.00544 10.0075C6.20922 10.0075 5.44561 9.69118 4.8826 9.12817C4.31959 8.56516 4.00329 7.80155 4.00329 7.00534C4.00329 6.20912 4.31959 5.44551 4.8826 4.8825C5.44561 4.31949 6.20922 4.00319 7.00544 4.00319C7.80165 4.00319 8.56526 4.31949 9.12827 4.8825C9.69128 5.44551 10.0076 6.20912 10.0076 7.00534ZM9.00687 7.00534C9.00687 6.47452 8.796 5.96545 8.42066 5.59011C8.04532 5.21477 7.53625 5.00391 7.00544 5.00391C6.47462 5.00391 5.96555 5.21477 5.59021 5.59011C5.21487 5.96545 5.00401 6.47452 5.00401 7.00534C5.00401 7.53615 5.21487 8.04522 5.59021 8.42056C5.96555 8.7959 6.47462 9.00677 7.00544 9.00677C7.53625 9.00677 8.04532 8.7959 8.42066 8.42056C8.796 8.04522 9.00687 7.53615 9.00687 7.00534ZM11.959 11.9639C13.2728 10.6494 14.0109 8.86688 14.0109 7.00834C14.0109 5.1498 13.2728 3.36733 11.959 2.0528C11.3086 1.40201 10.5364 0.885752 9.68646 0.533523C8.83651 0.181294 7.92548 0 7.00544 0C6.08539 0 5.17437 0.181294 4.32441 0.533523C3.47446 0.885752 2.70225 1.40201 2.0519 2.0528C0.738054 3.36733 0 5.1498 0 7.00834C0 8.86688 0.738054 10.6494 2.0519 11.9639L3.57399 13.4639L5.61845 15.4504L5.75154 15.5684C6.52709 16.1969 7.66291 16.1569 8.39343 15.4504L10.8302 13.0787L11.959 11.9639ZM2.7574 2.7583C3.31517 2.20028 3.97742 1.75763 4.70631 1.45561C5.4352 1.1536 6.21645 0.998156 7.00544 0.998156C7.79442 0.998156 8.57567 1.1536 9.30456 1.45561C10.0335 1.75763 10.6957 2.20028 11.2535 2.7583C12.349 3.85454 12.9788 5.33146 13.0117 6.8809C13.0445 8.43034 12.4777 9.93261 11.4296 11.0742L11.2535 11.2584L9.93153 12.5633L7.69993 14.7329L7.60587 14.8129C7.43284 14.9433 7.22208 15.0138 7.00544 15.0138C6.78879 15.0138 6.57803 14.9433 6.40501 14.8129L6.31194 14.7329L3.32981 11.8258L2.7574 11.2584L2.58128 11.0752C1.53318 9.93361 0.966403 8.43134 0.99922 6.8819C1.03204 5.33246 1.66191 3.85554 2.7574 2.7593V2.7583Z" fill="black"/>
</svg>
